<svg xmlns="http://www.w3.org/2000/svg" width="750" height="230" viewBox="0 0 750 230">
    <defs>
        <clipPath id="k349aq351a">
            <path data-name="사각형 2467" transform="translate(-13287 -16445)" style="fill:#eaf1ff" d="M0 0h750v230H0z"/>
        </clipPath>
        <clipPath id="r42sjyt5vb">
            <path data-name="사각형 2405" style="fill:none" d="M0 0h1658v143.938H0z"/>
        </clipPath>
        <clipPath id="318r5ld5tc">
            <path data-name="사각형 2432" style="fill:none" d="M0 0h647.617v120.456H0z"/>
        </clipPath>
        <clipPath id="397e2o8vmd">
            <path data-name="사각형 2434" style="fill:none" d="M0 0h649.638v46.042H0z"/>
        </clipPath>
        <clipPath id="ktrzosphke">
            <path data-name="사각형 2449" style="fill:none" d="M0 0h646.373v74.414H0z"/>
        </clipPath>
        <clipPath id="3rhe5r73pf">
            <path data-name="사각형 2463" style="fill:none" d="M0 0h114.834v47.203H0z"/>
        </clipPath>
        <clipPath id="fyvq4u2krg">
            <path data-name="사각형 2464" style="fill:none" d="M0 0h53.923v22.166H0z"/>
        </clipPath>
    </defs>
    <g data-name="그룹 29763">
        <g data-name="마스크 그룹 22" style="clip-path:url(#k349aq351a)" transform="translate(13287 16445)">
            <g data-name="그룹 29790">
                <path data-name="패스 62118" d="M0 0h1440v230H0V0z" transform="translate(-13687 -16445)" style="fill:#7ba3ff"/>
                <g data-name="그룹 29764">
                    <g data-name="그룹 29763" style="clip-path:url(#r42sjyt5vb)" transform="translate(-13735.5 -16349.785)">
                        <path data-name="패스 61945" d="M0 76.935s102.243-46.009 163.175-44.766S257.681 84.4 283.794 84.4c24.182 0 47.679-9.415 72.03-9.915 34.967-.718 63.594 19.058 96.61 25.777 22.19 4.517 45.211 5.658 67.625 2.1 19.914-3.163 38.886-12.249 59.091-13.632 16.706-1.144 34.339 3.323 50.411 7.453 30.634 7.871 62.487 23.282 94.432 24.28 23.5.734 48.008-5.279 71.03-9.194 34.888-5.935 69.719-12.258 104.761-17.249 23.346-3.325 46.868-6.125 70.488-5.954 23.245.167 44.868 5.695 67.658 8.822a237.982 237.982 0 0 0 63.443.507c21.311-2.817 38.536-10.485 58.261-18.5 86.868-35.318 184.916-59.215 278.719-42.569C1510.417 49.1 1583.373 85.5 1658 75.327v82.436H0z" transform="translate(0 -13.825)" style="fill:#00a543"/>
                        <path data-name="패스 61946" d="M2950.02 156.375s-19.027 38.759 0 38.759 0-38.759 0-38.759" transform="translate(-1315.859 -69.952)" style="fill:#00903d"/>
                        <path data-name="패스 61947" d="M57.61 142.128s-19.027 38.758 0 38.758 0-38.758 0-38.758" transform="translate(-21.988 -63.579)" style="fill:#00903d"/>
                        <path data-name="패스 61948" d="M137.728 116.81s-11.979 24.4 0 24.4 0-24.4 0-24.4" transform="translate(392.025 -23.52)" style="fill:#00903d"/>
                        <path data-name="패스 61949" d="M80.353 52.69s-11.979 24.4 0 24.4 0-24.4 0-24.4" transform="translate(429.437 18.29)" style="fill:#00903d"/>
                        <path data-name="패스 61950" d="M184.978 160.454s-11.979 24.4 0 24.4 0-24.4 0-24.4" transform="translate(361.216 -51.978)" style="fill:#00903d"/>
                        <path data-name="패스 61951" d="M742.955 156.738s-11.136 22.684 0 22.684 0-22.684 0-22.684" transform="translate(166.66 -68.121)" style="fill:#00903d"/>
                        <path data-name="패스 61952" d="M302.4 96.022s-7.875 16.042 0 16.042 0-16.042 0-16.042" transform="translate(283.458 -9.965)" style="fill:#00903d"/>
                        <path data-name="패스 61953" d="M544.033 145.7s-7.321 14.913 0 14.913 0-14.913 0-14.913" transform="translate(300.092 -60.651)" style="fill:#00903d"/>
                        <path data-name="패스 61954" d="M628.408 128.434s-7.321 14.913 0 14.913 0-14.913 0-14.913" transform="translate(243.008 -48.972)" style="fill:#00903d"/>
                        <path data-name="패스 61955" d="M799.62 133.685s-12.509 25.481 0 25.481 0-25.481 0-25.481" transform="translate(-355.21 -59.802)" style="fill:#00903d"/>
                        <path data-name="패스 61956" d="M847.951 172.466s-12.509 25.481 0 25.481 0-25.481 0-25.481" transform="translate(-376.83 -77.15)" style="fill:#00903d"/>
                        <path data-name="패스 61957" d="M587.721 177.193s-12.509 25.481 0 25.481 0-25.481 0-25.481" transform="translate(-260.42 -79.264)" style="fill:#00903d"/>
                        <path data-name="패스 61958" d="M2858.895 156.375s-19.027 38.759 0 38.759 0-38.759 0-38.759" transform="translate(-1275.096 -69.952)" style="fill:#00903d"/>
                        <path data-name="패스 61959" d="M2901.9 142.516s-13.274 27.039 0 27.039 0-27.039 0-27.039" transform="translate(-1295.478 -63.752)" style="fill:#00903d"/>
                        <path data-name="패스 61960" d="M2446.235 0s-13.274 27.039 0 27.039 0-27.039 0-27.039" transform="translate(-1267.644 41.296)" style="fill:#00903d"/>
                        <path data-name="패스 61961" d="M2396.36 18.485s-13.274 27.039 0 27.039 0-27.039 0-27.039" transform="translate(-1245.333 33.027)" style="fill:#00903d"/>
                        <path data-name="패스 61962" d="M2499.357 18.485s-13.274 27.039 0 27.039 0-27.039 0-27.039" transform="translate(-1291.407 33.027)" style="fill:#00903d"/>
                    </g>
                </g>
                <g data-name="그룹 29765">
                    <path data-name="패스 61963" d="M16.636 328.22a7.511 7.511 0 0 0-6.191 5.366 7 7 0 0 0-8.112.9C.937 335.8.2 338.172 1.468 339.61a3.9 3.9 0 0 0-.635 5.456 3.9 3.9 0 0 0 5.488.223 8.37 8.37 0 0 0 6.535 4.083 9.871 9.871 0 0 0 4.727-.942c.4-.2 2.936-2.1 2.3-2.754a8.864 8.864 0 0 0 4.967 2.739 5.574 5.574 0 0 0 5.17-1.907 4.1 4.1 0 0 0-.212-5.273 4.092 4.092 0 0 0 2.427-3.739 4.815 4.815 0 0 0-2.659-3.946c-.671-.288-4.6-.114-4.449 1.183a7.276 7.276 0 0 0-2.459-4.585 7.757 7.757 0 0 0-6.034-1.928" transform="translate(-13229.748 -16709.755)" style="fill:#fff"/>
                </g>
                <g data-name="그룹 29766">
                    <path data-name="패스 61964" d="M18.318 328.225a8.27 8.27 0 0 0-6.817 5.908 7.706 7.706 0 0 0-8.932 1c-1.537 1.445-2.348 4.053-.953 5.637a4.3 4.3 0 0 0-.7 6.007 4.3 4.3 0 0 0 6.043.246 9.216 9.216 0 0 0 7.2 4.5 10.868 10.868 0 0 0 5.205-1.038c.445-.216 3.233-2.314 2.535-3.032a9.759 9.759 0 0 0 5.469 3.016 6.137 6.137 0 0 0 5.692-2.1 4.515 4.515 0 0 0-.233-5.806 4.506 4.506 0 0 0 2.673-4.117 5.3 5.3 0 0 0-2.928-4.345c-.739-.317-5.065-.125-4.9 1.3a8.012 8.012 0 0 0-2.708-5.048 8.541 8.541 0 0 0-6.643-2.123" transform="translate(-12701 -16663.515)" style="fill:#fff"/>
                </g>
                <g data-name="그룹 29768">
                    <g data-name="그룹 29767" style="clip-path:url(#318r5ld5tc)" transform="translate(-12889.809 -16306.305)">
                        <path data-name="패스 61965" d="M1085.369 181.034v31.625a2.159 2.159 0 0 1-2.159 2.159H934.716a6.472 6.472 0 0 1-5.762-3.523 6.272 6.272 0 0 1-.581-1.638 6.421 6.421 0 0 1-.134-1.315V198.3a19.429 19.429 0 0 1 19.428-19.429h135.543a2.158 2.158 0 0 1 2.159 2.159" transform="translate(-727.859 -140.261)" style="fill:#ff6425"/>
                        <path data-name="패스 61966" d="M1219.178 236.807h-3.42a1.3 1.3 0 0 0-1.3 1.3v4.7a1.3 1.3 0 0 0 1.3 1.3h3.42a1.3 1.3 0 0 0 1.3-1.3v-4.7a1.3 1.3 0 0 0-1.3-1.3" transform="translate(-952.294 -185.687)" style="fill:#000600"/>
                        <path data-name="패스 61967" d="M1282.976 236.807h-3.42a1.3 1.3 0 0 0-1.3 1.3v4.7a1.3 1.3 0 0 0 1.3 1.3h3.42a1.3 1.3 0 0 0 1.3-1.3v-4.7a1.3 1.3 0 0 0-1.3-1.3" transform="translate(-1002.319 -185.687)" style="fill:#000600"/>
                        <path data-name="패스 61968" d="M1346.773 236.807h-3.42a1.3 1.3 0 0 0-1.3 1.3v4.7a1.3 1.3 0 0 0 1.3 1.3h3.42a1.3 1.3 0 0 0 1.3-1.3v-4.7a1.3 1.3 0 0 0-1.3-1.3" transform="translate(-1052.344 -185.687)" style="fill:#000600"/>
                        <path data-name="패스 61969" d="M1410.569 236.807h-3.42a1.3 1.3 0 0 0-1.3 1.3v4.7a1.3 1.3 0 0 0 1.3 1.3h3.42a1.3 1.3 0 0 0 1.3-1.3v-4.7a1.3 1.3 0 0 0-1.3-1.3" transform="translate(-1102.369 -185.687)" style="fill:#000600"/>
                        <path data-name="패스 61970" d="M1474.366 236.807h-3.42a1.3 1.3 0 0 0-1.3 1.3v4.7a1.3 1.3 0 0 0 1.3 1.3h3.42a1.3 1.3 0 0 0 1.3-1.3v-4.7a1.3 1.3 0 0 0-1.3-1.3" transform="translate(-1152.394 -185.687)" style="fill:#000600"/>
                        <path data-name="패스 61971" d="M1538.164 236.807h-3.42a1.3 1.3 0 0 0-1.3 1.3v4.7a1.3 1.3 0 0 0 1.3 1.3h3.42a1.3 1.3 0 0 0 1.3-1.3v-4.7a1.3 1.3 0 0 0-1.3-1.3" transform="translate(-1202.419 -185.687)" style="fill:#000600"/>
                        <path data-name="패스 61972" d="M1091.678 236.807h-3.42a1.3 1.3 0 0 0-1.3 1.3v4.7a1.3 1.3 0 0 0 1.3 1.3h3.42a1.3 1.3 0 0 0 1.3-1.3v-4.7a1.3 1.3 0 0 0-1.3-1.3" transform="translate(-852.318 -185.687)" style="fill:#000600"/>
                        <path data-name="패스 61973" d="M1027.929 236.807h-3.42a1.3 1.3 0 0 0-1.3 1.3v4.7a1.3 1.3 0 0 0 1.3 1.3h3.42a1.3 1.3 0 0 0 1.3-1.3v-4.7a1.3 1.3 0 0 0-1.3-1.3" transform="translate(-802.33 -185.687)" style="fill:#000600"/>
                        <path data-name="패스 61974" d="M955.093 220.214v10.868h-9.411l4.979-10.868z" transform="translate(-741.535 -172.676)" style="fill:#000600"/>
                        <path data-name="패스 61975" d="M1148.36 212.62h-9.129a1.173 1.173 0 0 0-1.173 1.173v22.324h11.475v-22.324a1.173 1.173 0 0 0-1.173-1.173" transform="translate(-892.383 -166.721)" style="fill:#f3f4ed"/>
                        <path data-name="패스 61976" d="M1155.428 236.807h-3.42a1.3 1.3 0 0 0-1.3 1.3v4.7a1.3 1.3 0 0 0 1.3 1.3h3.42a1.3 1.3 0 0 0 1.3-1.3v-4.7a1.3 1.3 0 0 0-1.3-1.3" transform="translate(-902.306 -185.687)" style="fill:#000600"/>
                        <path data-name="패스 61977" d="M1594.891 212.62h-9.129a1.173 1.173 0 0 0-1.173 1.173v22.324h11.475v-22.324a1.173 1.173 0 0 0-1.173-1.173" transform="translate(-1242.52 -166.721)" style="fill:#f3f4ed"/>
                        <path data-name="패스 61978" d="M1601.96 236.807h-3.42a1.3 1.3 0 0 0-1.3 1.3v4.7a1.3 1.3 0 0 0 1.3 1.3h3.42a1.3 1.3 0 0 0 1.3-1.3v-4.7a1.3 1.3 0 0 0-1.3-1.3" transform="translate(-1252.444 -185.687)" style="fill:#000600"/>
                        <path data-name="사각형 2406" transform="translate(220.884 45.899)" style="fill:#f3f4ed" d="M0 0h136.627v1.639H0z"/>
                        <path data-name="패스 61979" d="M1085.855 321.465v1.635H929.441a6.267 6.267 0 0 1-.581-1.638z" transform="translate(-728.345 -252.07)" style="fill:#f3f4ed"/>
                        <path data-name="패스 61980" d="M1087.965 329.055v1.364a2.159 2.159 0 0 1-2.159 2.159H937.312a6.472 6.472 0 0 1-5.762-3.523z" transform="translate(-730.454 -258.021)" style="fill:#4e5254"/>
                        <path data-name="사각형 2407" transform="translate(220.883 71.034)" style="fill:#000600" d="M0 0h19.773v3.523H0z"/>
                        <path data-name="사각형 2408" transform="translate(317.257 71.034)" style="fill:#000600" d="M0 0h19.783v3.523H0z"/>
                        <path data-name="패스 61981" d="M1807.446 181.034v31.625a2.159 2.159 0 0 1-2.159 2.159h-139.008a2.16 2.16 0 0 1-2.159-2.159v-31.625a2.16 2.16 0 0 1 2.159-2.159h139.009a2.159 2.159 0 0 1 2.159 2.159" transform="translate(-1304.882 -140.261)" style="fill:#ff6425"/>
                        <path data-name="패스 61982" d="M1827.368 236.807h-3.42a1.3 1.3 0 0 0-1.3 1.3v4.7a1.3 1.3 0 0 0 1.3 1.3h3.42a1.3 1.3 0 0 0 1.3-1.3v-4.7a1.3 1.3 0 0 0-1.3-1.3" transform="translate(-1429.193 -185.687)" style="fill:#000600"/>
                        <path data-name="패스 61983" d="M1891.119 236.807h-3.42a1.3 1.3 0 0 0-1.3 1.3v4.7a1.3 1.3 0 0 0 1.3 1.3h3.42a1.3 1.3 0 0 0 1.3-1.3v-4.7a1.3 1.3 0 0 0-1.3-1.3" transform="translate(-1479.181 -185.687)" style="fill:#000600"/>
                        <path data-name="패스 61984" d="M1954.915 236.807h-3.42a1.3 1.3 0 0 0-1.3 1.3v4.7a1.3 1.3 0 0 0 1.3 1.3h3.42a1.3 1.3 0 0 0 1.3-1.3v-4.7a1.3 1.3 0 0 0-1.3-1.3" transform="translate(-1529.206 -185.687)" style="fill:#000600"/>
                        <path data-name="패스 61985" d="M2018.712 236.807h-3.42a1.3 1.3 0 0 0-1.3 1.3v4.7a1.3 1.3 0 0 0 1.3 1.3h3.42a1.3 1.3 0 0 0 1.3-1.3v-4.7a1.3 1.3 0 0 0-1.3-1.3" transform="translate(-1579.231 -185.687)" style="fill:#000600"/>
                        <path data-name="패스 61986" d="M2082.51 236.807h-3.42a1.3 1.3 0 0 0-1.3 1.3v4.7a1.3 1.3 0 0 0 1.3 1.3h3.42a1.3 1.3 0 0 0 1.3-1.3v-4.7a1.3 1.3 0 0 0-1.3-1.3" transform="translate(-1629.256 -185.687)" style="fill:#000600"/>
                        <path data-name="패스 61987" d="M2146.307 236.807h-3.42a1.3 1.3 0 0 0-1.3 1.3v4.7a1.3 1.3 0 0 0 1.3 1.3h3.42a1.3 1.3 0 0 0 1.3-1.3v-4.7a1.3 1.3 0 0 0-1.3-1.3" transform="translate(-1679.281 -185.687)" style="fill:#000600"/>
                        <path data-name="패스 61988" d="M2210.1 236.807h-3.421a1.3 1.3 0 0 0-1.3 1.3v4.7a1.3 1.3 0 0 0 1.3 1.3h3.421a1.3 1.3 0 0 0 1.3-1.3v-4.7a1.3 1.3 0 0 0-1.3-1.3" transform="translate(-1729.305 -185.687)" style="fill:#000600"/>
                        <path data-name="패스 61989" d="M1763.618 236.807h-3.42a1.3 1.3 0 0 0-1.3 1.3v4.7a1.3 1.3 0 0 0 1.3 1.3h3.42a1.3 1.3 0 0 0 1.3-1.3v-4.7a1.3 1.3 0 0 0-1.3-1.3" transform="translate(-1379.204 -185.687)" style="fill:#000600"/>
                        <path data-name="사각형 2409" transform="translate(359.238 45.899)" style="fill:#f3f4ed" d="M0 0h143.326v1.639H0z"/>
                        <path data-name="패스 61990" d="M2266.831 212.62h-9.131a1.173 1.173 0 0 0-1.173 1.173v22.324H2268v-22.324a1.173 1.173 0 0 0-1.173-1.173" transform="translate(-1769.407 -166.721)" style="fill:#f3f4ed"/>
                        <path data-name="패스 61991" d="M2273.9 236.807h-3.42a1.3 1.3 0 0 0-1.3 1.3v4.7a1.3 1.3 0 0 0 1.3 1.3h3.42a1.3 1.3 0 0 0 1.3-1.3v-4.7a1.3 1.3 0 0 0-1.3-1.3" transform="translate(-1779.33 -185.687)" style="fill:#000600"/>
                        <path data-name="패스 61992" d="M1692.8 212.62h-9.129a1.173 1.173 0 0 0-1.173 1.173v22.324h11.475v-22.324a1.173 1.173 0 0 0-1.173-1.173" transform="translate(-1319.293 -166.721)" style="fill:#f3f4ed"/>
                        <path data-name="패스 61993" d="M1699.868 236.807h-3.42a1.3 1.3 0 0 0-1.3 1.3v4.7a1.3 1.3 0 0 0 1.3 1.3h3.42a1.3 1.3 0 0 0 1.3-1.3v-4.7a1.3 1.3 0 0 0-1.3-1.3" transform="translate(-1329.216 -185.687)" style="fill:#000600"/>
                        <path data-name="사각형 2410" transform="translate(359.238 69.395)" style="fill:#f3f4ed" d="M0 0h143.326v1.638H0z"/>
                        <path data-name="패스 61994" d="M1807.446 329.055v1.364a2.159 2.159 0 0 1-2.159 2.159h-139.008a2.16 2.16 0 0 1-2.159-2.159v-1.364z" transform="translate(-1304.882 -258.021)" style="fill:#4e5254"/>
                        <path data-name="사각형 2411" transform="translate(379.699 71.034)" style="fill:#000600" d="M0 0h19.783v3.523H0z"/>
                        <path data-name="사각형 2412" transform="translate(462.31 71.034)" style="fill:#000600" d="M0 0h19.783v3.523H0z"/>
                        <path data-name="사각형 2413" transform="translate(357.511 45.899)" style="fill:#000600" d="M0 0h1.727v25.135H0z"/>
                        <path data-name="패스 61995" d="M2479.386 181.034v31.625a2.159 2.159 0 0 1-2.159 2.159h-139.008a2.159 2.159 0 0 1-2.159-2.159v-31.625a2.159 2.159 0 0 1 2.159-2.159h139.009a2.159 2.159 0 0 1 2.159 2.159" transform="translate(-1831.769 -140.261)" style="fill:#ff6425"/>
                        <path data-name="패스 61996" d="M2499.309 236.807h-3.42a1.3 1.3 0 0 0-1.3 1.3v4.7a1.3 1.3 0 0 0 1.3 1.3h3.42a1.3 1.3 0 0 0 1.3-1.3v-4.7a1.3 1.3 0 0 0-1.3-1.3" transform="translate(-1956.079 -185.687)" style="fill:#000600"/>
                        <path data-name="패스 61997" d="M2563.059 236.807h-3.42a1.3 1.3 0 0 0-1.3 1.3v4.7a1.3 1.3 0 0 0 1.3 1.3h3.42a1.3 1.3 0 0 0 1.3-1.3v-4.7a1.3 1.3 0 0 0-1.3-1.3" transform="translate(-2006.067 -185.687)" style="fill:#000600"/>
                        <path data-name="패스 61998" d="M2626.855 236.807h-3.42a1.3 1.3 0 0 0-1.3 1.3v4.7a1.3 1.3 0 0 0 1.3 1.3h3.42a1.3 1.3 0 0 0 1.3-1.3v-4.7a1.3 1.3 0 0 0-1.3-1.3" transform="translate(-2056.092 -185.687)" style="fill:#000600"/>
                        <path data-name="패스 61999" d="M2690.653 236.807h-3.42a1.3 1.3 0 0 0-1.3 1.3v4.7a1.3 1.3 0 0 0 1.3 1.3h3.42a1.3 1.3 0 0 0 1.3-1.3v-4.7a1.3 1.3 0 0 0-1.3-1.3" transform="translate(-2106.117 -185.687)" style="fill:#000600"/>
                        <path data-name="패스 62000" d="M2754.449 236.807h-3.42a1.3 1.3 0 0 0-1.3 1.3v4.7a1.3 1.3 0 0 0 1.3 1.3h3.42a1.3 1.3 0 0 0 1.3-1.3v-4.7a1.3 1.3 0 0 0-1.3-1.3" transform="translate(-2156.142 -185.687)" style="fill:#000600"/>
                        <path data-name="패스 62001" d="M2818.246 236.807h-3.42a1.3 1.3 0 0 0-1.3 1.3v4.7a1.3 1.3 0 0 0 1.3 1.3h3.42a1.3 1.3 0 0 0 1.3-1.3v-4.7a1.3 1.3 0 0 0-1.3-1.3" transform="translate(-2206.167 -185.687)" style="fill:#000600"/>
                        <path data-name="패스 62002" d="M2882.043 236.807h-3.42a1.3 1.3 0 0 0-1.3 1.3v4.7a1.3 1.3 0 0 0 1.3 1.3h3.42a1.3 1.3 0 0 0 1.3-1.3v-4.7a1.3 1.3 0 0 0-1.3-1.3" transform="translate(-2256.192 -185.687)" style="fill:#000600"/>
                        <path data-name="패스 62003" d="M2435.559 236.807h-3.42a1.3 1.3 0 0 0-1.3 1.3v4.7a1.3 1.3 0 0 0 1.3 1.3h3.42a1.3 1.3 0 0 0 1.3-1.3v-4.7a1.3 1.3 0 0 0-1.3-1.3" transform="translate(-1906.091 -185.687)" style="fill:#000600"/>
                        <path data-name="사각형 2414" transform="translate(504.292 45.899)" style="fill:#f3f4ed" d="M0 0h143.326v1.639H0z"/>
                        <path data-name="패스 62004" d="M2938.771 212.62h-9.129a1.173 1.173 0 0 0-1.173 1.173v22.324h11.475v-22.324a1.173 1.173 0 0 0-1.173-1.173" transform="translate(-2296.293 -166.721)" style="fill:#f3f4ed"/>
                        <path data-name="패스 62005" d="M2945.84 236.807h-3.421a1.3 1.3 0 0 0-1.3 1.3v4.7a1.3 1.3 0 0 0 1.3 1.3h3.421a1.3 1.3 0 0 0 1.3-1.3v-4.7a1.3 1.3 0 0 0-1.3-1.3" transform="translate(-2306.217 -185.687)" style="fill:#000600"/>
                        <path data-name="패스 62006" d="M2364.74 212.62h-9.129a1.173 1.173 0 0 0-1.173 1.173v22.324h11.475v-22.324a1.173 1.173 0 0 0-1.173-1.173" transform="translate(-1846.18 -166.721)" style="fill:#f3f4ed"/>
                        <path data-name="패스 62007" d="M2371.809 236.807h-3.421a1.3 1.3 0 0 0-1.3 1.3v4.7a1.3 1.3 0 0 0 1.3 1.3h3.421a1.3 1.3 0 0 0 1.3-1.3v-4.7a1.3 1.3 0 0 0-1.3-1.3" transform="translate(-1856.103 -185.687)" style="fill:#000600"/>
                        <path data-name="사각형 2415" transform="translate(504.291 69.395)" style="fill:#f3f4ed" d="M0 0h143.326v1.638H0z"/>
                        <path data-name="패스 62008" d="M2479.386 329.055v1.364a2.159 2.159 0 0 1-2.159 2.159h-139.008a2.159 2.159 0 0 1-2.159-2.159v-1.364z" transform="translate(-1831.769 -258.021)" style="fill:#4e5254"/>
                        <path data-name="사각형 2416" transform="translate(524.752 71.034)" style="fill:#000600" d="M0 0h19.783v3.523H0z"/>
                        <path data-name="사각형 2417" transform="translate(607.364 71.034)" style="fill:#000600" d="M0 0h19.783v3.523H0z"/>
                        <path data-name="사각형 2418" transform="translate(502.564 45.899)" style="fill:#000600" d="M0 0h1.727v25.135H0z"/>
                        <path data-name="사각형 2419" transform="translate(95.839 4.488)" style="fill:#000600" d="M0 0h323.744v.648H0z"/>
                        <path data-name="사각형 2420" transform="translate(0 4.488)" style="fill:#000600" d="M0 0h75.105v.648H0z"/>
                        <path data-name="사각형 2421" transform="translate(0 9.492)" style="fill:#000600" d="M0 0h75.105v.648H0z"/>
                        <path data-name="사각형 2422" transform="translate(95.839 9.492)" style="fill:#000600" d="M0 0h323.744v.648H0z"/>
                        <path data-name="사각형 2423" transform="translate(440.317 9.492)" style="fill:#000600" d="M0 0h207.301v.648H0z"/>
                        <path data-name="사각형 2424" transform="translate(440.317 4.488)" style="fill:#000600" d="M0 0h207.301v.648H0z"/>
                        <path data-name="사각형 2425" transform="translate(83.651)" style="fill:#000600" d="M0 0h3.643v74.557H0z"/>
                        <path data-name="사각형 2426" transform="translate(73.936 8.905)" style="fill:#000600" d="M0 0h23.071v1.822H0z"/>
                        <path data-name="사각형 2427" transform="translate(73.936)" style="fill:#000600" d="M0 0h23.071v3.643H0z"/>
                        <path data-name="패스 62009" d="M343.669 19.212a1.169 1.169 0 0 1-1.169-1.169v-1.168h2.337v1.169a1.169 1.169 0 0 1-1.169 1.169" transform="translate(-268.564 -13.232)" style="fill:#000600"/>
                        <path data-name="패스 62010" d="M439.716 19.212a1.169 1.169 0 0 1-1.169-1.169v-1.168h2.337v1.169a1.169 1.169 0 0 1-1.169 1.169" transform="translate(-343.877 -13.232)" style="fill:#000600"/>
                        <path data-name="사각형 2428" transform="translate(428.128)" style="fill:#000600" d="M0 0h3.643v74.557H0z"/>
                        <path data-name="사각형 2429" transform="translate(418.414 8.905)" style="fill:#000600" d="M0 0h23.071v1.822H0z"/>
                        <path data-name="사각형 2430" transform="translate(418.414)" style="fill:#000600" d="M0 0h23.071v3.643H0z"/>
                        <path data-name="패스 62011" d="M1939.416 19.212a1.169 1.169 0 0 1-1.169-1.169v-1.168h2.338v1.169a1.169 1.169 0 0 1-1.169 1.169" transform="translate(-1519.833 -13.232)" style="fill:#000600"/>
                        <path data-name="패스 62012" d="M2035.463 19.212a1.169 1.169 0 0 1-1.169-1.169v-1.168h2.337v1.169a1.169 1.169 0 0 1-1.169 1.169" transform="translate(-1595.146 -13.232)" style="fill:#000600"/>
                        <path data-name="패스 62013" d="M647.617 345.375v45.9H340.3c-3.741-13.181-17.36-22.949-33.59-22.949s-29.849 9.768-33.59 22.949H0v-45.9z" transform="translate(0 -270.818)" style="fill:#f5d4a5"/>
                        <path data-name="사각형 2431" transform="translate(0 74.557)" style="fill:#bea271" d="M0 0h647.617v4.533H0z"/>
                        <path data-name="패스 62014" d="M1326.485 466.793h-2.243c-3.741-13.181-17.361-22.949-33.59-22.949s-29.849 9.768-33.59 22.949h-2.243l.166-.589c4.1-14.435 18.764-24.519 35.666-24.519s31.569 10.083 35.667 24.519z" transform="translate(-983.939 -346.337)" style="fill:#bea271"/>
                        <path data-name="패스 62015" d="M311.291 461.469h-9.258a1.3 1.3 0 0 1-1.3-1.3v-3.629a1.3 1.3 0 0 1 1.3-1.3h9.258a1.3 1.3 0 0 1 1.3 1.3v3.629a1.3 1.3 0 0 1-1.3 1.3" transform="translate(-235.816 -356.974)" style="fill:#d8bb8d"/>
                        <path data-name="패스 62016" d="M679.388 390.594h-9.258a1.3 1.3 0 0 1-1.3-1.3v-3.624a1.3 1.3 0 0 1 1.3-1.3h9.258a1.3 1.3 0 0 1 1.3 1.3v3.63a1.3 1.3 0 0 1-1.3 1.3" transform="translate(-524.451 -301.399)" style="fill:#d8bb8d"/>
                        <path data-name="패스 62017" d="M759.786 476.756h-9.258a1.3 1.3 0 0 1-1.3-1.3v-3.629a1.3 1.3 0 0 1 1.3-1.3h9.258a1.3 1.3 0 0 1 1.3 1.3v3.629a1.3 1.3 0 0 1-1.3 1.3" transform="translate(-587.493 -368.961)" style="fill:#d8bb8d"/>
                        <path data-name="패스 62018" d="M820.075 436.256h-9.258a1.3 1.3 0 0 1-1.3-1.3v-3.629a1.3 1.3 0 0 1 1.3-1.3h9.258a1.3 1.3 0 0 1 1.3 1.3v3.629a1.3 1.3 0 0 1-1.3 1.3" transform="translate(-634.768 -337.204)" style="fill:#d8bb8d"/>
                        <path data-name="패스 62019" d="M1225.417 405h-9.258a1.3 1.3 0 0 1-1.3-1.3v-3.629a1.3 1.3 0 0 1 1.3-1.3h9.258a1.3 1.3 0 0 1 1.3 1.3v3.629a1.3 1.3 0 0 1-1.3 1.3" transform="translate(-952.608 -312.694)" style="fill:#d8bb8d"/>
                        <path data-name="패스 62020" d="M1128.368 516.066h-9.258a1.3 1.3 0 0 1-1.3-1.3v-3.629a1.3 1.3 0 0 1 1.3-1.3h9.258a1.3 1.3 0 0 1 1.3 1.3v3.629a1.3 1.3 0 0 1-1.3 1.3" transform="translate(-876.509 -399.785)" style="fill:#d8bb8d"/>
                        <path data-name="패스 62021" d="M1670.988 443.5h-9.258a1.3 1.3 0 0 1-1.3-1.3v-3.629a1.3 1.3 0 0 1 1.3-1.3h9.258a1.3 1.3 0 0 1 1.3 1.3v3.629a1.3 1.3 0 0 1-1.3 1.3" transform="translate(-1301.992 -342.883)" style="fill:#d8bb8d"/>
                        <path data-name="패스 62022" d="M1721.973 476.756h-9.258a1.3 1.3 0 0 1-1.3-1.3v-3.629a1.3 1.3 0 0 1 1.3-1.3h9.258a1.3 1.3 0 0 1 1.3 1.3v3.629a1.3 1.3 0 0 1-1.3 1.3" transform="translate(-1341.971 -368.961)" style="fill:#d8bb8d"/>
                        <path data-name="패스 62023" d="M2038.472 396.6h-9.258a1.3 1.3 0 0 1-1.3-1.3v-3.629a1.3 1.3 0 0 1 1.3-1.3h9.258a1.3 1.3 0 0 1 1.3 1.3v3.629a1.3 1.3 0 0 1-1.3 1.3" transform="translate(-1590.147 -306.109)" style="fill:#d8bb8d"/>
                        <path data-name="패스 62024" d="M2385.718 472.309h-9.258a1.3 1.3 0 0 1-1.3-1.3v-3.629a1.3 1.3 0 0 1 1.3-1.3h9.258a1.3 1.3 0 0 1 1.3 1.3v3.629a1.3 1.3 0 0 1-1.3 1.3" transform="translate(-1862.432 -365.474)" style="fill:#d8bb8d"/>
                        <path data-name="패스 62025" d="M2337.547 425.41h-9.259a1.3 1.3 0 0 1-1.3-1.3v-3.629a1.3 1.3 0 0 1 1.3-1.3h9.259a1.3 1.3 0 0 1 1.3 1.3v3.629a1.3 1.3 0 0 1-1.3 1.3" transform="translate(-1824.659 -328.699)" style="fill:#d8bb8d"/>
                        <path data-name="패스 62026" d="M2706.266 394.458h-9.258a1.3 1.3 0 0 1-1.3-1.3v-3.629a1.3 1.3 0 0 1 1.3-1.3h9.258a1.3 1.3 0 0 1 1.3 1.3v3.629a1.3 1.3 0 0 1-1.3 1.3" transform="translate(-2113.782 -304.429)" style="fill:#d8bb8d"/>
                        <path data-name="패스 62027" d="M2914.97 432.427h-9.258a1.3 1.3 0 0 1-1.3-1.3V427.5a1.3 1.3 0 0 1 1.3-1.3h9.258a1.3 1.3 0 0 1 1.3 1.3v3.629a1.3 1.3 0 0 1-1.3 1.3" transform="translate(-2277.433 -334.201)" style="fill:#d8bb8d"/>
                        <path data-name="패스 62028" d="M245.478 416.36h-9.259a1.3 1.3 0 0 1-1.3-1.3v-3.629a1.3 1.3 0 0 1 1.3-1.3h9.259a1.3 1.3 0 0 1 1.3 1.3v3.629a1.3 1.3 0 0 1-1.3 1.3" transform="translate(-184.21 -321.603)" style="fill:#d8bb8d"/>
                    </g>
                </g>
                <g data-name="그룹 29770">
                    <g data-name="그룹 29769" style="clip-path:url(#397e2o8vmd)" transform="translate(-13538.447 -16231.891)">
                        <path data-name="패스 62029" d="M649.638 0v46.042H341.365c-3.753-13.222-17.415-23.021-33.695-23.021s-29.942 9.8-33.695 23.021H0V0z" style="fill:#f5d4a5"/>
                        <path data-name="사각형 2433" transform="translate(0 .05)" style="fill:#bea271" d="M0 0h649.638v4.559H0z"/>
                        <path data-name="패스 62030" d="M1326.709 121.5h-2.25c-3.753-13.222-17.415-23.021-33.695-23.021s-29.942 9.8-33.695 23.021h-2.25l.167-.591c4.11-14.48 18.822-24.6 35.778-24.6s31.668 10.115 35.778 24.6z" transform="translate(-983.094 -75.454)" style="fill:#bea271"/>
                        <path data-name="패스 62031" d="M311.323 116.114h-9.287a1.3 1.3 0 0 1-1.3-1.3v-3.64a1.3 1.3 0 0 1 1.3-1.3h9.287a1.3 1.3 0 0 1 1.3 1.3v3.64a1.3 1.3 0 0 1-1.3 1.3" transform="translate(-235.614 -86.082)" style="fill:#d8bb8d"/>
                        <path data-name="패스 62032" d="M679.42 45.239h-9.287a1.3 1.3 0 0 1-1.3-1.3V40.3a1.3 1.3 0 0 1 1.3-1.3h9.287a1.3 1.3 0 0 1 1.3 1.3v3.64a1.3 1.3 0 0 1-1.3 1.3" transform="translate(-524.001 -30.555)" style="fill:#d8bb8d"/>
                        <path data-name="패스 62033" d="M759.818 131.4h-9.287a1.3 1.3 0 0 1-1.3-1.3v-3.64a1.3 1.3 0 0 1 1.3-1.3h9.287a1.3 1.3 0 0 1 1.3 1.3v3.64a1.3 1.3 0 0 1-1.3 1.3" transform="translate(-586.989 -98.059)" style="fill:#d8bb8d"/>
                        <path data-name="패스 62034" d="M820.107 90.9h-9.287a1.3 1.3 0 0 1-1.3-1.3v-3.64a1.3 1.3 0 0 1 1.3-1.3h9.287a1.3 1.3 0 0 1 1.3 1.3v3.64a1.3 1.3 0 0 1-1.3 1.3" transform="translate(-634.223 -66.329)" style="fill:#d8bb8d"/>
                        <path data-name="패스 62035" d="M1225.449 59.644h-9.287a1.3 1.3 0 0 1-1.3-1.3V54.7a1.3 1.3 0 0 1 1.3-1.3h9.287a1.3 1.3 0 0 1 1.3 1.3v3.64a1.3 1.3 0 0 1-1.3 1.3" transform="translate(-951.789 -41.84)" style="fill:#d8bb8d"/>
                        <path data-name="패스 62036" d="M1128.4 170.711h-9.287a1.3 1.3 0 0 1-1.3-1.3v-3.64a1.3 1.3 0 0 1 1.3-1.3h9.287a1.3 1.3 0 0 1 1.3 1.3v3.64a1.3 1.3 0 0 1-1.3 1.3" transform="translate(-875.756 -128.856)" style="fill:#d8bb8d"/>
                        <path data-name="패스 62037" d="M1671.021 98.144h-9.287a1.3 1.3 0 0 1-1.3-1.3V93.2a1.3 1.3 0 0 1 1.3-1.3h9.287a1.3 1.3 0 0 1 1.3 1.3v3.64a1.3 1.3 0 0 1-1.3 1.3" transform="translate(-1300.874 -72.003)" style="fill:#d8bb8d"/>
                        <path data-name="패스 62038" d="M1722.005 131.4h-9.287a1.3 1.3 0 0 1-1.3-1.3v-3.64a1.3 1.3 0 0 1 1.3-1.3h9.287a1.3 1.3 0 0 1 1.3 1.3v3.64a1.3 1.3 0 0 1-1.3 1.3" transform="translate(-1340.818 -98.059)" style="fill:#d8bb8d"/>
                        <path data-name="패스 62039" d="M2038.505 51.245h-9.287a1.3 1.3 0 0 1-1.3-1.3v-3.64a1.3 1.3 0 0 1 1.3-1.3h9.287a1.3 1.3 0 0 1 1.3 1.3v3.64a1.3 1.3 0 0 1-1.3 1.3" transform="translate(-1588.781 -35.26)" style="fill:#d8bb8d"/>
                        <path data-name="패스 62040" d="M2385.75 126.954h-9.287a1.3 1.3 0 0 1-1.3-1.3v-3.64a1.3 1.3 0 0 1 1.3-1.3h9.287a1.3 1.3 0 0 1 1.3 1.3v3.64a1.3 1.3 0 0 1-1.3 1.3" transform="translate(-1860.832 -94.575)" style="fill:#d8bb8d"/>
                        <path data-name="패스 62041" d="M2337.579 80.055h-9.287a1.3 1.3 0 0 1-1.3-1.3v-3.64a1.3 1.3 0 0 1 1.3-1.3h9.287a1.3 1.3 0 0 1 1.3 1.3v3.64a1.3 1.3 0 0 1-1.3 1.3" transform="translate(-1823.092 -57.831)" style="fill:#d8bb8d"/>
                        <path data-name="패스 62042" d="M2706.3 49.1h-9.287a1.3 1.3 0 0 1-1.3-1.3v-3.64a1.3 1.3 0 0 1 1.3-1.3h9.287a1.3 1.3 0 0 1 1.3 1.3v3.64a1.3 1.3 0 0 1-1.3 1.3" transform="translate(-2111.967 -33.582)" style="fill:#d8bb8d"/>
                        <path data-name="패스 62043" d="M2915 87.072h-9.287a1.3 1.3 0 0 1-1.3-1.3v-3.64a1.3 1.3 0 0 1 1.3-1.3H2915a1.3 1.3 0 0 1 1.3 1.3v3.64a1.3 1.3 0 0 1-1.3 1.3" transform="translate(-2275.476 -63.329)" style="fill:#d8bb8d"/>
                        <path data-name="패스 62044" d="M245.511 71h-9.287a1.3 1.3 0 0 1-1.3-1.3v-3.64a1.3 1.3 0 0 1 1.3-1.3h9.287a1.3 1.3 0 0 1 1.3 1.3v3.64a1.3 1.3 0 0 1-1.3 1.3" transform="translate(-184.052 -50.741)" style="fill:#d8bb8d"/>
                    </g>
                </g>
                <g data-name="그룹 29772">
                    <g data-name="그룹 29771" style="clip-path:url(#397e2o8vmd)" transform="translate(-14187.086 -16231.891)">
                        <path data-name="패스 62045" d="M649.638 0v46.042H341.365c-3.753-13.222-17.415-23.021-33.695-23.021s-29.942 9.8-33.695 23.021H0V0z" style="fill:#f5d4a5"/>
                        <path data-name="사각형 2435" transform="translate(0 .05)" style="fill:#bea271" d="M0 0h649.638v4.559H0z"/>
                        <path data-name="패스 62046" d="M1326.709 121.5h-2.25c-3.753-13.222-17.415-23.021-33.695-23.021s-29.942 9.8-33.695 23.021h-2.25l.167-.591c4.11-14.48 18.822-24.6 35.778-24.6s31.668 10.115 35.778 24.6z" transform="translate(-983.094 -75.454)" style="fill:#bea271"/>
                        <path data-name="패스 62047" d="M311.323 116.114h-9.287a1.3 1.3 0 0 1-1.3-1.3v-3.64a1.3 1.3 0 0 1 1.3-1.3h9.287a1.3 1.3 0 0 1 1.3 1.3v3.64a1.3 1.3 0 0 1-1.3 1.3" transform="translate(-235.614 -86.082)" style="fill:#d8bb8d"/>
                        <path data-name="패스 62048" d="M679.42 45.239h-9.287a1.3 1.3 0 0 1-1.3-1.3V40.3a1.3 1.3 0 0 1 1.3-1.3h9.287a1.3 1.3 0 0 1 1.3 1.3v3.64a1.3 1.3 0 0 1-1.3 1.3" transform="translate(-524.001 -30.555)" style="fill:#d8bb8d"/>
                        <path data-name="패스 62049" d="M759.818 131.4h-9.287a1.3 1.3 0 0 1-1.3-1.3v-3.64a1.3 1.3 0 0 1 1.3-1.3h9.287a1.3 1.3 0 0 1 1.3 1.3v3.64a1.3 1.3 0 0 1-1.3 1.3" transform="translate(-586.989 -98.059)" style="fill:#d8bb8d"/>
                        <path data-name="패스 62050" d="M820.107 90.9h-9.287a1.3 1.3 0 0 1-1.3-1.3v-3.64a1.3 1.3 0 0 1 1.3-1.3h9.287a1.3 1.3 0 0 1 1.3 1.3v3.64a1.3 1.3 0 0 1-1.3 1.3" transform="translate(-634.223 -66.329)" style="fill:#d8bb8d"/>
                        <path data-name="패스 62051" d="M1225.449 59.644h-9.287a1.3 1.3 0 0 1-1.3-1.3V54.7a1.3 1.3 0 0 1 1.3-1.3h9.287a1.3 1.3 0 0 1 1.3 1.3v3.64a1.3 1.3 0 0 1-1.3 1.3" transform="translate(-951.789 -41.84)" style="fill:#d8bb8d"/>
                        <path data-name="패스 62052" d="M1128.4 170.711h-9.287a1.3 1.3 0 0 1-1.3-1.3v-3.64a1.3 1.3 0 0 1 1.3-1.3h9.287a1.3 1.3 0 0 1 1.3 1.3v3.64a1.3 1.3 0 0 1-1.3 1.3" transform="translate(-875.756 -128.856)" style="fill:#d8bb8d"/>
                        <path data-name="패스 62053" d="M1671.021 98.144h-9.287a1.3 1.3 0 0 1-1.3-1.3V93.2a1.3 1.3 0 0 1 1.3-1.3h9.287a1.3 1.3 0 0 1 1.3 1.3v3.64a1.3 1.3 0 0 1-1.3 1.3" transform="translate(-1300.874 -72.003)" style="fill:#d8bb8d"/>
                        <path data-name="패스 62054" d="M1722.005 131.4h-9.287a1.3 1.3 0 0 1-1.3-1.3v-3.64a1.3 1.3 0 0 1 1.3-1.3h9.287a1.3 1.3 0 0 1 1.3 1.3v3.64a1.3 1.3 0 0 1-1.3 1.3" transform="translate(-1340.818 -98.059)" style="fill:#d8bb8d"/>
                        <path data-name="패스 62055" d="M2038.505 51.245h-9.287a1.3 1.3 0 0 1-1.3-1.3v-3.64a1.3 1.3 0 0 1 1.3-1.3h9.287a1.3 1.3 0 0 1 1.3 1.3v3.64a1.3 1.3 0 0 1-1.3 1.3" transform="translate(-1588.781 -35.26)" style="fill:#d8bb8d"/>
                        <path data-name="패스 62056" d="M2385.75 126.954h-9.287a1.3 1.3 0 0 1-1.3-1.3v-3.64a1.3 1.3 0 0 1 1.3-1.3h9.287a1.3 1.3 0 0 1 1.3 1.3v3.64a1.3 1.3 0 0 1-1.3 1.3" transform="translate(-1860.832 -94.575)" style="fill:#d8bb8d"/>
                        <path data-name="패스 62057" d="M2337.579 80.055h-9.287a1.3 1.3 0 0 1-1.3-1.3v-3.64a1.3 1.3 0 0 1 1.3-1.3h9.287a1.3 1.3 0 0 1 1.3 1.3v3.64a1.3 1.3 0 0 1-1.3 1.3" transform="translate(-1823.092 -57.831)" style="fill:#d8bb8d"/>
                        <path data-name="패스 62058" d="M2706.3 49.1h-9.287a1.3 1.3 0 0 1-1.3-1.3v-3.64a1.3 1.3 0 0 1 1.3-1.3h9.287a1.3 1.3 0 0 1 1.3 1.3v3.64a1.3 1.3 0 0 1-1.3 1.3" transform="translate(-2111.967 -33.582)" style="fill:#d8bb8d"/>
                        <path data-name="패스 62059" d="M2915 87.072h-9.287a1.3 1.3 0 0 1-1.3-1.3v-3.64a1.3 1.3 0 0 1 1.3-1.3H2915a1.3 1.3 0 0 1 1.3 1.3v3.64a1.3 1.3 0 0 1-1.3 1.3" transform="translate(-2275.476 -63.329)" style="fill:#d8bb8d"/>
                        <path data-name="패스 62060" d="M245.511 71h-9.287a1.3 1.3 0 0 1-1.3-1.3v-3.64a1.3 1.3 0 0 1 1.3-1.3h9.287a1.3 1.3 0 0 1 1.3 1.3v3.64a1.3 1.3 0 0 1-1.3 1.3" transform="translate(-184.052 -50.741)" style="fill:#d8bb8d"/>
                    </g>
                </g>
                <g data-name="그룹 29775">
                    <path data-name="사각형 2437" transform="translate(-13398.345 -16301.826)" style="fill:#000600" d="M0 0h323.122v.646H0z"/>
                    <path data-name="사각형 2438" transform="translate(-13494 -16301.826)" style="fill:#000600" d="M0 0h74.961v.646H0z"/>
                    <path data-name="사각형 2439" transform="translate(-13494 -16296.832)" style="fill:#000600" d="M0 0h74.961v.647H0z"/>
                    <path data-name="사각형 2440" transform="translate(-13398.345 -16296.832)" style="fill:#000600" d="M0 0h323.122v.646H0z"/>
                    <path data-name="사각형 2441" transform="translate(-13054.529 -16296.832)" style="fill:#000600" d="M0 0h206.902v.647H0z"/>
                    <path data-name="사각형 2442" transform="translate(-13054.529 -16301.826)" style="fill:#000600" d="M0 0h206.902v.646H0z"/>
                    <path data-name="사각형 2443" transform="translate(-13410.51 -16306.305)" style="fill:#000600" d="M0 0h3.636v74.414H0z"/>
                    <path data-name="사각형 2444" transform="translate(-13420.206 -16297.417)" style="fill:#000600" d="M0 0h23.027v1.818H0z"/>
                    <path data-name="사각형 2445" transform="translate(-13420.206 -16306.305)" style="fill:#000600" d="M0 0h23.027v3.636H0z"/>
                    <g data-name="그룹 29774">
                        <g data-name="그룹 29773" style="clip-path:url(#ktrzosphke)" transform="translate(-13494 -16306.305)">
                            <path data-name="패스 62061" d="M343.667 19.208a1.167 1.167 0 0 1-1.167-1.166v-1.167h2.333v1.166a1.167 1.167 0 0 1-1.167 1.166" transform="translate(-268.706 -13.239)" style="fill:#000600"/>
                            <path data-name="패스 62062" d="M439.714 19.208a1.167 1.167 0 0 1-1.167-1.166v-1.167h2.333v1.166a1.167 1.167 0 0 1-1.167 1.166" transform="translate(-344.059 -13.239)" style="fill:#000600"/>
                            <path data-name="사각형 2446" transform="translate(427.306)" style="fill:#000600" d="M0 0h3.636v74.414H0z"/>
                            <path data-name="사각형 2447" transform="translate(417.61 8.888)" style="fill:#000600" d="M0 0h23.027v1.818H0z"/>
                            <path data-name="사각형 2448" transform="translate(417.61)" style="fill:#000600" d="M0 0h23.027v3.636H0z"/>
                            <path data-name="패스 62063" d="M1939.414 19.208a1.166 1.166 0 0 1-1.167-1.166v-1.167h2.333v1.166a1.166 1.166 0 0 1-1.166 1.166" transform="translate(-1520.637 -13.239)" style="fill:#000600"/>
                            <path data-name="패스 62064" d="M2035.461 19.208a1.167 1.167 0 0 1-1.167-1.166v-1.167h2.333v1.166a1.166 1.166 0 0 1-1.167 1.166" transform="translate(-1595.99 -13.239)" style="fill:#000600"/>
                        </g>
                    </g>
                </g>
                <g data-name="그룹 29778">
                    <path data-name="사각형 2450" transform="translate(-14040.718 -16301.826)" style="fill:#000600" d="M0 0h323.122v.646H0z"/>
                    <path data-name="사각형 2451" transform="translate(-14136.373 -16301.826)" style="fill:#000600" d="M0 0h74.961v.646H0z"/>
                    <path data-name="사각형 2452" transform="translate(-14136.373 -16296.832)" style="fill:#000600" d="M0 0h74.961v.647H0z"/>
                    <path data-name="사각형 2453" transform="translate(-14040.718 -16296.832)" style="fill:#000600" d="M0 0h323.122v.646H0z"/>
                    <path data-name="사각형 2454" transform="translate(-13696.902 -16296.832)" style="fill:#000600" d="M0 0h206.902v.647H0z"/>
                    <path data-name="사각형 2455" transform="translate(-13696.902 -16301.826)" style="fill:#000600" d="M0 0h206.902v.646H0z"/>
                    <path data-name="사각형 2456" transform="translate(-14052.883 -16306.305)" style="fill:#000600" d="M0 0h3.636v74.414H0z"/>
                    <path data-name="사각형 2457" transform="translate(-14062.579 -16297.417)" style="fill:#000600" d="M0 0h23.027v1.818H0z"/>
                    <path data-name="사각형 2458" transform="translate(-14062.579 -16306.305)" style="fill:#000600" d="M0 0h23.027v3.636H0z"/>
                    <g data-name="그룹 29777">
                        <g data-name="그룹 29776" style="clip-path:url(#ktrzosphke)" transform="translate(-14136.373 -16306.305)">
                            <path data-name="패스 62065" d="M343.667 19.208a1.167 1.167 0 0 1-1.167-1.166v-1.167h2.333v1.166a1.167 1.167 0 0 1-1.167 1.166" transform="translate(-268.706 -13.239)" style="fill:#000600"/>
                            <path data-name="패스 62066" d="M439.714 19.208a1.167 1.167 0 0 1-1.167-1.166v-1.167h2.333v1.166a1.167 1.167 0 0 1-1.167 1.166" transform="translate(-344.059 -13.239)" style="fill:#000600"/>
                            <path data-name="사각형 2459" transform="translate(427.306)" style="fill:#000600" d="M0 0h3.636v74.414H0z"/>
                            <path data-name="사각형 2460" transform="translate(417.61 8.888)" style="fill:#000600" d="M0 0h23.027v1.818H0z"/>
                            <path data-name="사각형 2461" transform="translate(417.61)" style="fill:#000600" d="M0 0h23.027v3.636H0z"/>
                            <path data-name="패스 62067" d="M1939.414 19.208a1.166 1.166 0 0 1-1.167-1.166v-1.167h2.333v1.166a1.166 1.166 0 0 1-1.166 1.166" transform="translate(-1520.637 -13.239)" style="fill:#000600"/>
                            <path data-name="패스 62068" d="M2035.461 19.208a1.167 1.167 0 0 1-1.167-1.166v-1.167h2.333v1.166a1.166 1.166 0 0 1-1.167 1.166" transform="translate(-1595.99 -13.239)" style="fill:#000600"/>
                        </g>
                    </g>
                </g>
                <g data-name="그룹 29781">
                    <g data-name="그룹 29780" transform="translate(-13331.463 -16460.537)" style="clip-path:url(#3rhe5r73pf)">
                        <path data-name="패스 62106" d="M111.006 28.986a9.6 9.6 0 0 0-9.343-.837c.214-5.6-1.178-11.53-5.1-15.531s-10.744-5.391-15.283-2.1a20.84 20.84 0 0 0-37.4 2.455C31.1 9.052 17.962 17.4 13.832 29.6c-3.249-.373-6.684-.72-9.665.623S-1 35.261.468 38.184a7.459 7.459 0 0 0 2.112 2.378c6.073 4.853 14.32 5.738 22.072 6.291 5.131.364 10.329.662 15.387-.278s10.033-3.252 13.235-7.275c2.222 3.343 6.745 4.068 10.741 4.446 12.09 1.141 24.421 1.906 36.44-.306 4.12-.758 9.418-.992 12.519-4.2 3.436-3.555 1.72-7.669-1.968-10.251" style="fill:#fff"/>
                        <path data-name="패스 62107" d="M13.832 49.3c-3.249-.373-6.683-.72-9.665.623S-1 54.962.468 57.885a7.46 7.46 0 0 0 2.112 2.378C8.653 65.116 16.9 66 24.652 66.553c5.131.365 10.329.663 15.387-.278S50.072 63.025 53.274 59c2.222 3.343 6.745 4.068 10.741 4.445 12.089 1.142 24.421 1.907 36.439-.306 4.12-.758 9.418-.992 12.519-4.2 3.437-3.555 1.72-7.669-1.968-10.251a9.6 9.6 0 0 0-9.343-.837A22.789 22.789 0 0 0 98.6 34.91a11.251 11.251 0 0 1-.058 6.94A7.838 7.838 0 0 1 87.2 46.126a13.453 13.453 0 0 1-6.73-10.518A19.4 19.4 0 0 1 64.022 52.2a19.405 19.405 0 0 1-19.93-12.185 13.861 13.861 0 0 1-18.93 10.424 8.1 8.1 0 0 1-4.6-4.118c-1.126-2.757.091-5.927 1.793-8.371a22.052 22.052 0 0 1 1.464-1.866 26.6 26.6 0 0 0-9.99 13.22" transform="translate(0 -19.701)" style="fill:#f5fbff"/>
                        <path data-name="패스 62108" d="M122.282 76.843c2.222 3.343 6.745 4.068 10.741 4.446 12.09 1.141 24.421 1.906 36.44-.306 4.12-.758 9.418-.992 12.519-4.2 3.436-3.555 1.72-7.669-1.968-10.251.754 3.322-1.7 6.773-4.8 8.2s-6.644 1.353-10.044 1.149a9.72 9.72 0 0 0 4.547-6.035 19.568 19.568 0 0 1-23.087 2.825c-1.09 2.165-3.332 3.5-5.568 4.434-6.057 2.535-12.969 2.787-18.784-.264" transform="translate(-69.008 -37.546)" style="fill:#dff2fd"/>
                        <path data-name="패스 62109" d="M1.075 78.855a7.454 7.454 0 0 0 2.111 2.377c6.073 4.854 14.317 5.74 22.072 6.291 5.131.365 10.329.662 15.387-.278s10.033-3.251 13.236-7.277a15.849 15.849 0 0 1-8.272-7.9c.7 2.838-1.147 5.84-3.687 7.288S36.326 81 33.4 80.9c-5.912-.21-12.173-1.738-16.153-6.113 1.431 3.79 4.883 6.566 8.688 7.957a30.347 30.347 0 0 0 11.995 1.343 10.653 10.653 0 0 1-4.785 1.4c-10.7 1.185-22.812-1.143-32.073-6.635" transform="translate(-.607 -40.671)" style="fill:#dff2fd"/>
                    </g>
                </g>
                <g data-name="그룹 29783">
                    <g data-name="그룹 29782" transform="translate(-12874.588 -16426.936)" style="clip-path:url(#fyvq4u2krg)">
                        <path data-name="패스 62110" d="M9.674 9.294C12.2 3.926 19.848 1.79 24.8 5.069a12.932 12.932 0 0 1 22.605 3.958c2.5-.417 5.356.8 6.273 3.168s-.856 5.517-3.391 5.495a9.349 9.349 0 0 0-2.48-.1 4.506 4.506 0 0 0-1.659 1.089c-6.357 5.446-17.2 4.376-22.367-2.207a10.31 10.31 0 0 1-13.281-.18c.48.442-4.988 1.58-5.61 1.483-2-.313-4.5-1.519-4.838-3.743-.7-4.654 6.383-6.957 9.625-4.738" style="fill:#fff"/>
                        <path data-name="패스 62111" d="M.048 20.363c.334 2.224 2.841 3.43 4.838 3.743.622.1 6.089-1.041 5.61-1.483a10.31 10.31 0 0 0 13.285.177c5.17 6.583 16.01 7.652 22.366 2.207a4.51 4.51 0 0 1 1.659-1.089 9.334 9.334 0 0 1 2.48.1c2.536.023 4.308-3.13 3.391-5.495s-3.772-3.585-6.273-3.168a12.616 12.616 0 0 0-2.042-3.883A10.009 10.009 0 0 1 43 18.881a8.5 8.5 0 0 1-3.437 2.419 13.055 13.055 0 0 1-6.065.333 11.294 11.294 0 0 1-3.955-1.042 4.484 4.484 0 0 1-2.443-3.122 5.436 5.436 0 0 1 .813-3.334 13.255 13.255 0 0 1 3.429-4.058 10.991 10.991 0 0 0-8.331 6.948 3.457 3.457 0 0 1-.73 1.408A2.773 2.773 0 0 1 21.1 19a20.525 20.525 0 0 1-6.431.756c-1.82-.076-3.848-.535-4.817-2.077a4.239 4.239 0 0 1-2.7 1.925A2.345 2.345 0 0 1 4.493 18a2.507 2.507 0 0 1 1-2.357c.249-.2 1.151-.521 1.659-.845C3.731 14.513-.5 16.716.048 20.363" transform="translate(0 -6.331)" style="fill:#f5fbff"/>
                        <path data-name="패스 62112" d="M63.94 37.084c5.17 6.583 16.009 7.652 22.366 2.207a4.508 4.508 0 0 1 1.659-1.091 9.337 9.337 0 0 1 2.48.1c2.536.023 4.308-3.13 3.391-5.495a5.894 5.894 0 0 1-3.413 3.709 5.5 5.5 0 0 1-4.854-.3 6.2 6.2 0 0 1-3.62 3.706 13.9 13.9 0 0 1-5.245.878 16.041 16.041 0 0 1-3.688-.3 18.568 18.568 0 0 1-5.739-2.68c-1.464-.922-3.031-2.061-3.349-3.762-.052.894.064 2.119.011 3.013" transform="translate(-40.158 -20.616)" style="fill:#dff2fd"/>
                        <path data-name="패스 62113" d="M23.782 30.742a10.31 10.31 0 0 1-13.282-.177c.48.441-4.988 1.58-5.61 1.483-2-.313-4.5-1.519-4.838-3.743-.548-3.647 3.683-5.85 7.1-5.564-1.686.419-3.414 1.062-4.3 2.553a3.6 3.6 0 0 0 .71 4.681 4.576 4.576 0 0 0 3.3.506A4.451 4.451 0 0 0 10.3 28.5a10.073 10.073 0 0 0 6.367 2.894 24.021 24.021 0 0 0 7.115-.65" transform="translate(0 -14.273)" style="fill:#dff2fd"/>
                    </g>
                </g>
                <g data-name="그룹 29784">
                    <path data-name="패스 62114" d="M179.311 27.425a18.161 18.161 0 0 0-26.381-13.5 21.632 21.632 0 0 0-40.89 1.354c-5.632-.321-10.917 4.981-10.579 10.612-4.279-1.931-9.43 3.072-8.42 7.657s6.511 7.208 11.07 6.09a40.529 40.529 0 0 0 40.352 4.024c10.222 6.76 25.88 2.841 31.713-7.935-.77 1.422 11.435 3.726 13.795-1.473 2.672-5.886-6.166-9.428-10.66-6.825" transform="translate(-12692.465 -16428.851)" style="fill:#fff"/>
                    <path data-name="패스 62115" d="M93.041 38.208c1.01 4.584 6.511 7.209 11.07 6.09a40.529 40.529 0 0 0 40.352 4.024c10.222 6.76 25.88 2.842 31.713-7.935-.77 1.422 11.435 3.726 13.795-1.472 2.672-5.887-6.166-9.429-10.66-6.825a18.473 18.473 0 0 0-9.7-13.571 17.746 17.746 0 0 0-4.578-1.581 17.9 17.9 0 0 1 3.722 7.2c.8 3.673-.37 8-3.6 9.922-2.253 1.341-5.036 1.319-7.655 1.2-3.082-.145-6.758-.773-7.978-3.607a13.85 13.85 0 0 1-.644-3.059 11.393 11.393 0 0 0-11.364-9.034c2.725.324 4.5 3.478 3.947 6.165s-2.893 4.735-5.478 5.654a20.858 20.858 0 0 1-8.141.744c-4.588-.249-9.654-1.07-12.523-4.659a7.344 7.344 0 0 1-9.017 1.157 7.186 7.186 0 0 1-2.852-3.713 2.372 2.372 0 0 1-.093-.512 9.638 9.638 0 0 0-1.893 6.156c-4.279-1.931-9.43 3.073-8.42 7.657" transform="translate(-12692.465 -16433.514)" style="fill:#f5fbff"/>
                    <path data-name="패스 62116" d="M207.8 45.814c-.77 1.422 11.435 3.727 13.8-1.472 2.672-5.887-6.167-9.429-10.661-6.826a21.577 21.577 0 0 1 6.451.08c1.15.215 2.425.646 2.9 1.715a3.04 3.04 0 0 1 .2 1.4 5.14 5.14 0 0 1-2.186 4.055 8.063 8.063 0 0 1-4.063.939c-1.893.082-4.538.158-6.432.113" transform="translate(-12724.092 -16438.943)" style="fill:#dff2fd"/>
                    <path data-name="패스 62117" d="M176.175 45.4c-5.833 10.777-21.491 14.7-31.713 7.936a40.527 40.527 0 0 1-40.351-4.025c-4.559 1.12-10.06-1.506-11.07-6.089s4.141-9.588 8.42-7.658c-3.083.284-5.147 3.975-4.228 6.932a5.457 5.457 0 0 0 7.534 3 13.668 13.668 0 0 1-.957-5.275c1.194 2.606 4.49 3.427 7.356 3.5a29.117 29.117 0 0 0 8.22-.957 8.214 8.214 0 0 1-7.161 6.409c4.973 2.791 10.878 3.383 16.581 3.331 3.84-.035 7.828-.376 11.159-2.287s5.815-5.772 5.017-9.53a8.736 8.736 0 0 1 1.83 10.3 21.826 21.826 0 0 0 15.211 1.664 35.431 35.431 0 0 0 14.152-7.251" transform="translate(-12692.465 -16438.527)" style="fill:#dff2fd"/>
                </g>
            </g>
        </g>
        <g data-name="그룹 29786">
            <path data-name="패스 49811" d="m1575.469 913.859-18.861-9.487.1-49.153 18.861 9.487z" transform="translate(-1055.733 -735.86)" style="stroke:#000;stroke-linecap:round;stroke-linejoin:round;stroke-width:1.5px;fill:#21409a"/>
            <path data-name="패스 49812" d="m1575.919 739.774-18.861-9.487.049-24.58 18.861 9.487z" transform="translate(-1056.035 -635.504)" style="stroke:#000;stroke-linecap:round;stroke-linejoin:round;stroke-width:1.5px;fill:#21409a"/>
            <path data-name="패스 49813" d="m1501.022 793.152-18.861-9.487 24.624-3.2 18.861 9.487z" transform="translate(-1005.763 -685.686)" style="fill:#c90018;stroke:#000;stroke-linecap:round;stroke-linejoin:round;stroke-width:1.5px"/>
            <path data-name="패스 49814" d="m1501.323 643.644-18.861-9.487 24.624-3.2 18.861 9.487z" transform="translate(-1005.964 -585.33)" style="fill:#c90018;stroke:#000;stroke-linecap:round;stroke-linejoin:round;stroke-width:1.5px"/>
            <path data-name="패스 49815" d="m1513.676 659.813 24.575 21.376-.2 98.309-24.624 3.2.1-49.153-24.624 3.2-.1 49.153-24.625 3.2.2-98.309 24.674-27.776zm-.1 49.156.049-24.58-24.624 3.2-.049 24.576 24.625-3.2" transform="translate(-993.693 -604.699)" style="stroke:#000;stroke-linecap:round;stroke-linejoin:round;stroke-width:1.5px;fill:#fff"/>
            <path data-name="패스 49816" d="m1425.674 832.97-18.861-9.487.2-98.309 18.861 9.487z" transform="translate(-955.187 -648.571)" style="stroke:#000;stroke-linecap:round;stroke-linejoin:round;stroke-width:1.5px;fill:#21409a"/>
            <path data-name="패스 49817" d="m1426.275 677.953-18.861-9.487 24.674-27.776 18.861 9.487z" transform="translate(-955.591 -591.863)" style="fill:#c90018;stroke:#000;stroke-linecap:round;stroke-linejoin:round;stroke-width:1.5px"/>
            <path data-name="패스 49818" d="m1932.528 968.895-18.861-9.487.049-24.576 18.861 9.487z" transform="translate(-1295.399 -789.297)" style="stroke:#000;stroke-linecap:round;stroke-linejoin:round;stroke-width:1.5px;fill:#21409a"/>
            <path data-name="패스 49819" d="m1882.506 900.677-18.861-9.487-24.575-21.376 18.861 9.487z" transform="translate(-1245.328 -745.656)" style="stroke:#000;stroke-linecap:round;stroke-linejoin:round;stroke-width:1.5px;fill:#21409a"/>
            <path data-name="패스 49820" d="m1932.978 694.468-18.861-9.487.1-49.153 18.861 9.487z" transform="translate(-1295.701 -588.6)" style="stroke:#000;stroke-linecap:round;stroke-linejoin:round;stroke-width:1.5px;fill:#21409a"/>
            <path data-name="패스 49821" d="m1933.278 638.783-18.861-9.487 24.625-3.2 18.861 9.487z" transform="translate(-1295.903 -582.067)" style="fill:#c90018;stroke:#000;stroke-linecap:round;stroke-linejoin:round;stroke-width:1.5px"/>
            <path data-name="패스 49822" d="m1895.359 654.952-.247 122.882-24.625 3.2.049-24.576-24.575-21.376-.1 49.153-24.625 3.2.247-122.882 24.625-3.2-.049 24.576 24.575 21.376.1-49.153z" transform="translate(-1233.359 -601.436)" style="stroke:#000;stroke-linecap:round;stroke-linejoin:round;stroke-width:1.5px;fill:#fff"/>
            <path data-name="패스 49823" d="m1782.733 787.664-18.861-9.487.247-122.882 18.861 9.487z" transform="translate(-1194.853 -601.667)" style="stroke:#000;stroke-linecap:round;stroke-linejoin:round;stroke-width:1.5px;fill:#21409a"/>
            <path data-name="패스 49824" d="m1783.484 658.249-18.861-9.487 24.625-3.2 18.861 9.487z" transform="translate(-1195.357 -595.133)" style="fill:#c90018;stroke:#000;stroke-linecap:round;stroke-linejoin:round;stroke-width:1.5px"/>
            <path data-name="패스 49825" d="m1219.431 894.149-18.861-9.487.049-24.576 18.861 9.487z" transform="translate(-816.752 -739.127)" style="stroke:#000;stroke-linecap:round;stroke-linejoin:round;stroke-width:1.5px;fill:#21409a"/>
            <path data-name="패스 49826" d="m1069.487 988.367-18.861-9.487.049-24.576 18.861 9.487z" transform="translate(-716.106 -802.367)" style="stroke:#000;stroke-linecap:round;stroke-linejoin:round;stroke-width:1.5px;fill:#21409a"/>
            <path data-name="패스 49827" d="m1069.637 950.724-18.861-9.487 49.249-6.4 18.861 9.487z" transform="translate(-716.207 -789.301)" style="fill:#c90018;stroke:#000;stroke-linecap:round;stroke-linejoin:round;stroke-width:1.5px"/>
            <path data-name="패스 49828" d="m1144.835 798.011-18.861-9.487 24.624-3.2 18.861 9.487z" transform="translate(-766.681 -688.945)" style="fill:#c90018;stroke:#000;stroke-linecap:round;stroke-linejoin:round;stroke-width:1.5px"/>
            <path data-name="패스 49829" d="m1094.512 835.658-18.861-9.487-24.575-21.38 18.861 9.487z" transform="translate(-716.408 -702.011)" style="stroke:#000;stroke-linecap:round;stroke-linejoin:round;stroke-width:1.5px;fill:#21409a"/>
            <path data-name="패스 49830" d="m1145.135 641.977-18.861-9.487 49.249-6.4 18.861 9.487z" transform="translate(-766.883 -582.063)" style="fill:#c90018;stroke:#000;stroke-linecap:round;stroke-linejoin:round;stroke-width:1.5px"/>
            <path data-name="패스 49831" d="m1070.087 682.824-18.861-9.487 24.674-27.78 18.861 9.487z" transform="translate(-716.509 -595.13)" style="fill:#c90018;stroke:#000;stroke-linecap:round;stroke-linejoin:round;stroke-width:1.5px"/>
            <path data-name="패스 49832" d="m1069.937 764.111-18.861-9.487.049-24.573 18.861 9.487z" transform="translate(-716.408 -651.845)" style="stroke:#000;stroke-linecap:round;stroke-linejoin:round;stroke-width:1.5px;fill:#21409a"/>
            <path data-name="패스 49833" d="m1132.864 661.346 49.249-6.4-.049 24.576-49.249 6.4-.049 24.573 24.624-3.2 24.575 21.38-.049 24.576-12.335 13.886-12.339 13.89-49.249 6.4.049-24.576 49.249-6.4.049-24.576-24.624 3.2-24.576-21.375.049-24.573z" transform="translate(-754.612 -601.432)" style="stroke:#000;stroke-linecap:round;stroke-linejoin:round;stroke-width:1.5px;fill:#fff"/>
            <path data-name="패스 49834" d="m788.14 952.391-18.861-9.491 24.625-3.2 18.861 9.487z" transform="translate(-527.26 -792.568)" style="fill:#c90018;stroke:#000;stroke-linecap:round;stroke-linejoin:round;stroke-width:1.5px"/>
            <path data-name="패스 49835" d="m737.818 990.034-18.861-9.487-24.576-21.377 18.861 9.487z" transform="translate(-476.987 -805.634)" style="stroke:#000;stroke-linecap:round;stroke-linejoin:round;stroke-width:1.5px;fill:#21409a"/>
            <path data-name="패스 49836" d="M863.037 748.486 844.176 739l.2-98.309 18.861 9.487z" transform="translate(-577.532 -591.863)" style="stroke:#000;stroke-linecap:round;stroke-linejoin:round;stroke-width:1.5px;fill:#21409a"/>
            <path data-name="패스 49837" d="m863.638 643.644-18.861-9.487 24.625-3.2 18.861 9.487z" transform="translate(-577.936 -585.33)" style="fill:#c90018;stroke:#000;stroke-linecap:round;stroke-linejoin:round;stroke-width:1.5px"/>
            <path data-name="패스 49838" d="m825.819 659.813-.2 98.309-24.671 27.778-24.625 3.2-24.575-21.376.2-98.309 24.625-3.2-.2 98.309 24.625-3.2.2-98.309z" transform="translate(-515.493 -604.699)" style="stroke:#000;stroke-linecap:round;stroke-linejoin:round;stroke-width:1.5px;fill:#fff"/>
            <path data-name="패스 49839" d="m713.242 767.953-18.861-9.487.2-98.309 18.861 9.487z" transform="translate(-476.987 -604.929)" style="stroke:#000;stroke-linecap:round;stroke-linejoin:round;stroke-width:1.5px;fill:#21409a"/>
            <path data-name="패스 49840" d="m713.843 663.11-18.861-9.487 24.625-3.2 18.861 9.487z" transform="translate(-477.39 -598.396)" style="fill:#c90018;stroke:#000;stroke-linecap:round;stroke-linejoin:round;stroke-width:1.5px"/>
            <path data-name="패스 49841" d="m506.124 889.283-18.86-9.483.049-24.576 18.861 9.487z" transform="translate(-337.965 -735.86)" style="stroke:#000;stroke-linecap:round;stroke-linejoin:round;stroke-width:1.5px;fill:#21409a"/>
            <path data-name="패스 49842" d="m431.227 942.657-18.861-9.487 24.625-3.2 18.861 9.487z" transform="translate(-287.692 -786.034)" style="fill:#c90018;stroke:#000;stroke-linecap:round;stroke-linejoin:round;stroke-width:1.5px"/>
            <path data-name="패스 49843" d="m506.425 739.771-18.861-9.488.049-24.576 18.861 9.487z" transform="translate(-338.166 -635.504)" style="stroke:#000;stroke-linecap:round;stroke-linejoin:round;stroke-width:1.5px;fill:#21409a"/>
            <path data-name="패스 49844" d="m431.527 793.145-18.861-9.487 24.625-3.2 18.861 9.487z" transform="translate(-287.893 -685.678)" style="fill:#c90018;stroke:#000;stroke-linecap:round;stroke-linejoin:round;stroke-width:1.5px"/>
            <path data-name="패스 49845" d="m468.756 681.189-.05 24.58-12.335 13.886 12.286 10.686-.049 24.58-24.674 27.779-49.249 6.4.247-122.885 49.249-6.4zm-24.773 76.933.049-24.576-24.624 3.2-.049 24.576 24.624-3.2m.1-49.156.049-24.576-24.625 3.2-.049 24.576 24.625-3.2" transform="translate(-275.824 -604.699)" style="stroke:#000;stroke-linecap:round;stroke-linejoin:round;stroke-width:1.5px;fill:#fff"/>
            <path data-name="패스 49846" d="m356.179 782.8-18.861-9.487.247-122.885 18.861 9.487z" transform="translate(-237.318 -598.396)" style="stroke:#000;stroke-linecap:round;stroke-linejoin:round;stroke-width:1.5px;fill:#21409a"/>
            <path data-name="패스 49847" d="m356.93 646.844-18.861-9.487 49.249-6.4 18.861 9.487z" transform="translate(-237.822 -585.33)" style="fill:#c90018;stroke:#000;stroke-linecap:round;stroke-linejoin:round;stroke-width:1.5px"/>
        </g>
    </g>
</svg>
