<svg xmlns="http://www.w3.org/2000/svg" width="31.5" height="31.501" viewBox="0 0 31.5 31.501">
    <path data-name="패스 61924" d="M13.008 9h15.609a4.008 4.008 0 0 1 4.008 4.008v15.609a4.008 4.008 0 0 1-4.008 4.008H13.008A4.008 4.008 0 0 1 9 28.617V13.008A4.008 4.008 0 0 1 13.008 9z" style="fill:none;stroke:#b3b3b4;stroke-linejoin:round;stroke-width:2.25px" transform="translate(-2.25 -2.249)"/>
    <path data-name="패스 61925" d="M26.965 9 27 7.312a3.949 3.949 0 0 0-3.938-3.938H7.875a4.513 4.513 0 0 0-4.5 4.5v15.188A3.949 3.949 0 0 0 7.313 27H9" style="stroke-linecap:round;fill:none;stroke:#b3b3b4;stroke-linejoin:round;stroke-width:2.25px" transform="translate(-2.25 -2.249)"/>
</svg>
