<svg xmlns="http://www.w3.org/2000/svg" width="30" height="25.755" viewBox="0 0 30 25.755">
    <path data-name="패스 49140" d="M33.25 13.643H5.75c-.688 0-1.25-.791-1.25-1.759s.562-1.759 1.25-1.759h27.5c.688 0 1.25.791 1.25 1.759s-.562 1.759-1.25 1.759z" style="fill:#295caa" transform="translate(-4.5 -10.125)"/>
    <path data-name="패스 49141" d="M33.25 20.393H5.75c-.688 0-1.25-.791-1.25-1.759s.562-1.759 1.25-1.759h27.5c.688 0 1.25.791 1.25 1.759s-.562 1.759-1.25 1.759z" transform="translate(-4.5 -5.757)" style="fill:#295caa"/>
    <path data-name="패스 49142" d="M33.25 27.143H5.75c-.688 0-1.25-.791-1.25-1.759s.562-1.759 1.25-1.759h27.5c.688 0 1.25.791 1.25 1.759s-.562 1.759-1.25 1.759z" transform="translate(-4.5 -1.388)" style="fill:#295caa"/>
</svg>
