<svg xmlns="http://www.w3.org/2000/svg" width="118" height="147.5" viewBox="0 0 118 147.5">
  <defs>
    <style>
      .cls-1 {
        fill: #bcbcbc;
      }
    </style>
  </defs>
  <path id="plagiarism_FILL0_wght400_GRAD0_opsz48" class="cls-1" d="M61.1,112.043a28.727,28.727,0,0,0,7.467-1.014A26.414,26.414,0,0,0,75.85,107.8l20.281,20.281,7.375-7.375L83.04,100.243A21.1,21.1,0,0,0,85.9,93.606a31.094,31.094,0,0,0,.83-7.191A25.193,25.193,0,0,0,61.1,60.787,25.193,25.193,0,0,0,35.472,86.415,25.193,25.193,0,0,0,61.1,112.043Zm0-11.062A14.734,14.734,0,0,1,50.683,76,14.128,14.128,0,0,1,61.1,71.85,14.734,14.734,0,0,1,71.517,96.832,14.128,14.128,0,0,1,61.1,100.981ZM19.062,151.5a10.613,10.613,0,0,1-7.744-3.319A10.613,10.613,0,0,1,8,140.437V15.062a10.613,10.613,0,0,1,3.319-7.744A10.613,10.613,0,0,1,19.062,4H85.622L126,44.378v96.059A11.342,11.342,0,0,1,114.937,151.5ZM80.09,49.356V15.062H19.062V140.437h95.875V49.356ZM19.062,15.062v0Z" transform="translate(-8 -4)"/>
</svg>
