<svg xmlns="http://www.w3.org/2000/svg" width="31.5" height="29.251" viewBox="0 0 31.5 29.251">
    <path d="M32.555 13.5H22.212l-3.143-9.38a1.139 1.139 0 0 0-2.138 0l-3.143 9.38H3.375a1.128 1.128 0 0 0-1.125 1.125.832.832 0 0 0 .021.19 1.084 1.084 0 0 0 .471.8l8.5 5.991-3.261 9.48a1.128 1.128 0 0 0 .387 1.266 1.086 1.086 0 0 0 .632.274 1.384 1.384 0 0 0 .7-.253L18 26.46l8.3 5.913a1.314 1.314 0 0 0 .7.253 1.015 1.015 0 0 0 .626-.274 1.116 1.116 0 0 0 .387-1.266L24.75 21.6l8.43-6.047.2-.176a1.179 1.179 0 0 0 .366-.752 1.191 1.191 0 0 0-1.191-1.125zM23.611 20a1.975 1.975 0 0 0-.717 2.236l2.116 6.166a.282.282 0 0 1-.429.323l-5.442-3.881a1.966 1.966 0 0 0-1.146-.366 1.927 1.927 0 0 0-1.139.366l-5.442 3.874a.281.281 0 0 1-.429-.323l2.117-6.162a1.982 1.982 0 0 0-.724-2.25l-5.7-4.015a.282.282 0 0 1 .162-.513h6.939a1.965 1.965 0 0 0 1.863-1.343l2.081-6.2a.283.283 0 0 1 .534 0l2.081 6.2a1.966 1.966 0 0 0 1.864 1.343h6.841a.278.278 0 0 1 .162.506L23.609 20z" transform="translate(-2.25 -3.375)" style="fill:#bbbbbc"/>
</svg>
